<svg xmlns="http://www.w3.org/2000/svg" width="289" height="59" viewBox="0 0 289 59" fill="none">
  <path d="M29.589 58.1608C13.7835 58.1723 0.965576 45.3675 0.965576 29.5677C0.965576 13.7766 13.772 0.974634 29.566 0.974634H50.1602V8.35573H30.1377C26.3773 8.35573 22.9042 9.29561 19.7184 11.1754C16.5326 13.0551 14.0104 15.6161 12.1604 18.8554C10.3075 22.0947 9.38253 25.6214 9.38253 29.4326C9.38253 33.2468 10.3075 37.0954 12.1604 40.3088C14.0104 43.5223 16.5326 46.0688 19.7184 47.9457C22.9071 49.8255 26.3802 50.7654 30.1377 50.7654H42.3121V32.9996H22.5394V25.8082H50.1602V58.158H29.8935L29.589 58.1608ZM102.86 27.6161V58.181H110.148V27.5213C110.148 12.8798 98.2748 1.00913 83.627 1.00913H56.9685V58.181H64.3226V27.6161C64.3226 16.9785 72.9492 8.35285 83.5896 8.35285C94.2329 8.35573 102.86 16.9785 102.86 27.6161ZM212.464 25.9203H195.627C192.849 25.9203 190.574 25.1184 188.804 23.5117C187.032 21.905 186.147 19.7665 186.147 17.0992C186.147 14.4865 187.032 12.3739 188.804 10.7672C190.574 9.16052 192.849 8.3586 195.627 8.3586H212.464V0.974634H194.257C185.4 0.974634 178.221 8.15165 178.221 17.0072V17.0705L178.233 18.795C178.282 26.6532 184.671 32.9996 192.53 32.9996L194.975 32.9565C197.971 32.9565 200.41 33.7728 202.289 35.4082C204.168 37.0408 205.107 39.1649 205.107 41.7805C205.107 44.396 204.168 46.546 202.289 48.2332C200.41 49.9232 197.971 50.7654 194.975 50.7654H175.708V58.1608H212.461V25.9203H212.464ZM248.056 58.1608H217.342V0.986131H248.053V58.1608H248.056ZM242.621 18.2288C242.621 12.7447 238.18 8.30111 232.699 8.30111C227.218 8.30111 222.777 12.7447 222.777 18.2288C222.777 23.7129 227.218 28.1565 232.699 28.1565C238.18 28.1565 242.621 23.7129 242.621 18.2288ZM169.638 14.9866C172.252 19.39 173.559 24.1843 173.559 29.3723C173.559 34.5603 172.252 39.3575 169.638 43.7579C167.024 48.1613 163.493 51.6564 159.058 54.2519C154.62 56.8473 149.785 58.1436 144.557 58.1436C139.483 58.1436 134.692 56.8473 130.173 54.2519C125.657 51.6564 122.127 48.1613 119.593 43.7579C117.056 39.3575 115.789 34.5603 115.789 29.3723C115.789 24.1843 117.056 19.39 119.593 14.9866C122.127 10.5861 125.654 7.12842 130.173 4.61057C134.689 2.09847 139.48 0.83667 144.557 0.83667C149.785 0.83667 154.62 2.09559 159.058 4.61057C163.493 7.12842 167.024 10.589 169.638 14.9866ZM154.599 29.5016C154.599 24.0175 150.158 19.5739 144.677 19.5739C139.196 19.5739 134.755 24.0175 134.755 29.5016C134.755 34.9857 139.196 39.4293 144.677 39.4293C150.158 39.4293 154.599 34.9828 154.599 29.5016ZM265.06 10.7644C266.829 9.15764 269.104 8.35573 271.882 8.35573H288.153V0.974634H270.512C261.656 0.974634 254.477 8.15165 254.477 17.0072V17.0705L254.577 33.0025H268.786H270.664C273.661 33.0025 276.099 33.7757 277.978 35.4111C279.857 37.0437 280.796 39.1678 280.796 41.7833C280.796 44.3989 279.857 46.5488 277.978 48.236C276.099 49.9261 273.661 50.7683 270.664 50.7683H253.086V58.1637H270.664H271.808C280.834 58.1637 288.15 50.8487 288.15 41.8236V25.9203H271.879C269.102 25.9203 266.826 25.1184 265.057 23.5117C263.284 21.905 262.4 19.7665 262.4 17.0992C262.403 14.4808 263.287 12.3711 265.06 10.7644Z" fill="white"/>
</svg>