<svg width="135" height="120" viewBox="0 0 135 120" fill="none" xmlns="http://www.w3.org/2000/svg">
<path opacity="0.525154" fill-rule="evenodd" clip-rule="evenodd" d="M134.531 99.406C135.253 107.659 113.042 116.342 84.9225 118.803C56.8016 121.263 33.4201 116.568 32.698 108.315C31.9759 100.062 54.1869 91.377 82.3078 88.917C110.428 86.4566 133.809 91.152 134.531 99.406Z" fill="#C7B299"/>
<path d="M45.0919 114.092C74.966 122.097 105.673 104.368 113.678 74.4939C121.682 44.6198 103.954 13.9129 74.0796 5.9082C44.2055 -2.0966 13.4987 15.6321 5.4939 45.5062C-2.5108 75.3803 15.2178 106.087 45.0919 114.092Z" fill="#E75A2B" stroke="white" stroke-width="6"/>
<path d="M47.1235 58.2137L53.4875 69.2364" stroke="white" stroke-width="7" stroke-linecap="round"/>
<path d="M74.895 51.1612L53.4403 69.2636" stroke="white" stroke-width="7" stroke-linecap="round"/>
</svg>
