<svg width="64" height="64" viewBox="0 0 64 64" fill="none" xmlns="http://www.w3.org/2000/svg">
<circle cx="32" cy="32" r="32" fill="#E75A2B"/>
<path d="M45.7313 32.3769C45.7566 32.5444 45.7383 32.7155 45.678 32.8738L44.4292 35.8671C44.3062 36.1903 44.0223 36.4252 43.6817 36.4859L40.1339 37.117C39.5986 37.2123 39.0875 36.8558 38.9922 36.3208C38.9713 36.2035 38.9719 36.0834 38.994 35.9663L39.5594 32.9644C39.6369 32.5533 39.9659 32.2361 40.3798 32.1736L44.6108 31.551C45.1484 31.4699 45.6501 31.8396 45.7313 32.3769ZM43.1723 33.425L41.3712 33.6913C41.233 33.7117 41.1229 33.8176 41.097 33.9549L40.9247 34.8694C40.8912 35.0473 41.0083 35.2188 41.1863 35.2523C41.2253 35.2596 41.2653 35.2598 41.3044 35.2529L42.906 34.9679C43.016 34.9484 43.1085 34.8741 43.1514 34.7708L43.5231 33.8749C43.5925 33.7077 43.5132 33.5159 43.3459 33.4465C43.291 33.4237 43.231 33.4163 43.1723 33.425ZM48.2681 26.1249C48.288 26.2844 48.2685 26.4463 48.2114 26.5966L47.0083 29.6144C46.8809 29.949 46.5817 30.1881 46.2271 30.2386L41.3485 30.9415C40.8102 31.0182 40.3117 30.6443 40.235 30.1063C40.2198 29.9997 40.2222 29.8913 40.2421 29.7855L40.8133 26.752C40.8925 26.3317 41.2342 26.0106 41.6589 25.9577L47.1693 25.2704C47.7089 25.2031 48.2008 25.5857 48.2681 26.1249ZM45.1846 27.1023L42.0281 27.496C41.8866 27.5137 41.7728 27.6206 41.7464 27.7607L41.5624 28.738C41.5289 28.9159 41.646 29.0873 41.824 29.1209C41.8595 29.1275 41.8958 29.1283 41.9316 29.1231L44.8812 28.6965C44.9957 28.6799 45.093 28.6043 45.1372 28.4974L45.5281 27.5531C45.5973 27.3858 45.5179 27.194 45.3506 27.1247C45.2981 27.103 45.2409 27.0953 45.1846 27.1023ZM51.4734 18.3442C51.4882 18.5374 51.4601 18.7315 51.391 18.9126L49.7012 23.1477C49.5287 23.5994 49.1215 23.9197 48.6417 23.9812L39.7875 25.1149C39.0685 25.2069 38.4109 24.699 38.3188 23.9803C38.302 23.8493 38.3051 23.7166 38.328 23.5866L39.2939 18.9541C39.3977 18.364 39.8883 17.9191 40.486 17.8732L50.064 17.1368C50.7868 17.0813 51.4178 17.6218 51.4734 18.3442ZM47.6928 19.6206L40.9261 20.1788L40.4213 22.7765L47.0877 21.8566C47.3155 21.8251 47.5102 21.6766 47.6008 21.4652L48.1305 20.2284C48.2256 20.0064 48.1227 19.7495 47.9008 19.6544C47.8353 19.6263 47.7638 19.6147 47.6928 19.6206Z" fill="#FFC55A"/>
<path d="M27.6498 20.1933H22.0897C20.6909 20.1933 19.4938 21.1971 19.2499 22.5746L15.5118 43.6912C15.2342 45.2596 16.2806 46.7561 17.8489 47.0337C18.0149 47.0631 18.1831 47.0779 18.3516 47.0779H23.9111L23.9529 47.0776C25.3333 47.0578 26.5088 46.0609 26.7507 44.6977L27.7554 39.0344H29.6313L28.8054 43.6901C28.5271 45.2584 29.5729 46.7553 31.1412 47.0335C31.3075 47.0631 31.4761 47.0779 31.645 47.0779H37.2047C38.6035 47.0779 39.8006 46.0741 40.0445 44.6966L43.7825 23.58C44.0602 22.0116 43.0138 20.5151 41.4455 20.2375C41.2795 20.2081 41.1113 20.1933 40.9427 20.1933H35.3836L35.3417 20.1936C33.9623 20.2134 32.7873 21.209 32.5444 22.571L31.5705 28.0328H29.6956L30.489 23.5836C30.7686 22.0155 29.7241 20.5177 28.1561 20.2381C27.989 20.2083 27.8195 20.1933 27.6498 20.1933ZM27.6498 21.614C27.7359 21.614 27.8219 21.6216 27.9067 21.6368C28.6943 21.7772 29.2216 22.5234 29.0944 23.3103L29.0903 23.3342L28.1218 28.7655C28.1158 28.7994 28.1127 28.8338 28.1127 28.8682C28.1127 29.1863 28.3664 29.4451 28.6824 29.4533L28.698 29.4535H32.2701C32.5485 29.4535 32.7875 29.2577 32.8434 28.9864L32.8463 28.971L33.9431 22.8204C34.0663 22.1294 34.6624 21.6243 35.3621 21.614H35.3836H40.9427C41.0283 21.614 41.1136 21.6215 41.1978 21.6364C41.9856 21.7759 42.5138 22.5215 42.3876 23.3085L42.3836 23.3324L38.6455 44.449C38.523 45.1408 37.9266 45.6468 37.2261 45.6572H37.2047H31.645C31.5593 45.6572 31.4737 45.6496 31.3894 45.6347C30.6016 45.4949 30.0737 44.7491 30.2002 43.9622L30.2042 43.9383L31.2043 38.3012C31.2103 38.2674 31.2133 38.2332 31.2133 38.1989C31.2133 37.8809 30.9596 37.6221 30.6436 37.6138L30.628 37.6136H27.0552C26.7766 37.6136 26.5375 37.8098 26.4818 38.0812L26.4789 38.0967L25.3518 44.4495C25.2291 45.1411 24.6328 45.6469 23.9325 45.6572H23.9111H18.3516C18.2661 45.6572 18.1808 45.6497 18.0966 45.6348C17.3088 45.4953 16.7806 44.7497 16.9068 43.9627L16.9108 43.9388L20.6489 22.8222C20.7714 22.1304 21.3678 21.6243 22.0682 21.614H22.0897H27.6498Z" fill="#E75A2B"/>
<path d="M27.6496 21.6139H22.0895C21.3797 21.6139 20.7723 22.1232 20.6486 22.8221L16.9105 43.9387C16.7696 44.7345 17.3005 45.4938 18.0963 45.6347C18.1805 45.6496 18.2658 45.6571 18.3513 45.6571H23.9108C24.6204 45.6571 25.2276 45.148 25.3516 44.4494L26.4787 38.0966C26.5283 37.8171 26.7712 37.6135 27.055 37.6135H30.6279C30.9511 37.6135 31.2132 37.8756 31.2132 38.1988C31.2132 38.2331 31.2102 38.2673 31.2042 38.3011L30.2041 43.9382C30.0629 44.7339 30.5935 45.4934 31.3892 45.6346C31.4736 45.6495 31.5591 45.6571 31.6448 45.6571H37.2046C37.9144 45.6571 38.5218 45.1477 38.6455 44.4489L42.3836 23.3322C42.5245 22.5365 41.9936 21.7772 41.1978 21.6363C41.1136 21.6214 41.0283 21.6139 40.9428 21.6139H35.3835C34.6745 21.6139 34.0675 22.1223 33.943 22.8203L32.8462 28.9709C32.7964 29.2501 32.5536 29.4534 32.27 29.4534H28.6978C28.3746 29.4534 28.1125 29.1914 28.1125 28.8681C28.1125 28.8337 28.1156 28.7993 28.1216 28.7654L29.0902 23.3341C29.232 22.5385 28.7021 21.7785 27.9065 21.6366C27.8217 21.6215 27.7358 21.6139 27.6496 21.6139Z" fill="white"/>
</svg>
