<svg width="64" height="64" viewBox="0 0 64 64" fill="none" xmlns="http://www.w3.org/2000/svg">
<path d="M32 64C49.6731 64 64 49.6731 64 32C64 14.3269 49.6731 0 32 0C14.3269 0 0 14.3269 0 32C0 49.6731 14.3269 64 32 64Z" fill="#6F41D8"/>
<path d="M42.184 25.386C41.446 24.956 40.488 24.956 39.676 25.386L33.918 28.694L30.008 30.85L24.25 34.156C23.512 34.588 22.554 34.588 21.742 34.156L17.166 31.568C16.428 31.138 15.912 30.348 15.912 29.484V24.38C15.912 23.518 16.354 22.728 17.166 22.296L21.666 19.78C22.406 19.348 23.366 19.348 24.178 19.78L28.678 22.296C29.418 22.728 29.934 23.518 29.934 24.38V27.688L33.844 25.458V22.152C33.8483 21.7226 33.7334 21.3004 33.512 20.9325C33.2906 20.5646 32.9714 20.2653 32.59 20.068L24.25 15.324C23.512 14.892 22.554 14.892 21.742 15.324L13.254 20.068C12.8726 20.2653 12.5534 20.5646 12.332 20.9325C12.1106 21.3004 11.9957 21.7226 12 22.152V31.712C12 32.576 12.442 33.366 13.254 33.798L21.742 38.542C22.48 38.972 23.44 38.972 24.25 38.542L30.008 35.306L33.918 33.078L39.676 29.844C40.414 29.412 41.372 29.412 42.184 29.844L46.686 32.36C47.426 32.79 47.94 33.58 47.94 34.444V39.548C47.94 40.41 47.5 41.2 46.686 41.632L42.186 44.22C41.446 44.652 40.486 44.652 39.676 44.22L35.174 41.704C34.434 41.272 33.918 40.482 33.918 39.62V36.312L30.008 38.542V41.848C30.008 42.71 30.45 43.502 31.262 43.932L39.75 48.676C40.488 49.108 41.446 49.108 42.258 48.676L50.746 43.932C51.484 43.502 52 42.712 52 41.848V32.288C52.0043 31.8586 51.8894 31.4364 51.668 31.0685C51.4466 30.7006 51.1274 30.4013 50.746 30.204L42.186 25.386H42.184Z" fill="white"/>
</svg>
